<?xml version="1.0"?>
<svg xmlns="http://www.w3.org/2000/svg" xmlns:xlink="http://www.w3.org/1999/xlink" xmlns:svgjs="http://svgjs.com/svgjs" version="1.1" width="512" height="512" x="0" y="0" viewBox="0 0 512 512" style="enable-background:new 0 0 512 512" xml:space="preserve" class=""><g><g xmlns="http://www.w3.org/2000/svg"><g><path d="m0 218.962v293.038h121.08l30.005-330.796z" fill="#5d3bff" data-original="#3ba9ff" style="" class=""/><path d="m360.915 128.263 30.005 383.737h121.08v-421.495z" fill="#4b4989" data-original="#0081ff" style="" class=""/><path d="m121.08 90.793v421.207h134.92l20-233.299-20-233.3z" fill="#383e9b" data-original="#2ad7f5" style="" class=""/><path d="m390.92 0v512h-134.92v-466.599z" fill="#5d3bff" data-original="#3ba9ff" style="" class=""/><g><path d="m181.588 314.636h30v40.924h-30z" fill="#ffffff" data-original="#ffffff" style=""/></g><g><path d="m300.412 314.636h30v40.924h-30z" fill="#eaf4f4" data-original="#eaf4f4" style="" class=""/></g><g><path d="m241 314.885h30v40.93h-30z" fill="#ffffff" data-original="#ffffff" style=""/></g><g><path d="m181.588 224.033h30v40.924h-30z" fill="#ffffff" data-original="#ffffff" style=""/></g><g><path d="m300.412 224.033h30v40.924h-30z" fill="#eaf4f4" data-original="#eaf4f4" style="" class=""/></g><g><path d="m241 224.285h30v40.92h-30z" fill="#ffffff" data-original="#ffffff" style=""/></g><g><path d="m181.588 133.376h30v40.924h-30z" fill="#ffffff" data-original="#ffffff" style=""/></g><g><path d="m300.412 93.028h30v81.273h-30z" fill="#eaf4f4" data-original="#eaf4f4" style="" class=""/></g><g><path d="m241 113.455h30v61.1h-30z" fill="#ffffff" data-original="#ffffff" style=""/></g><g><path d="m44.543 385.379h30v91.36h-30z" fill="#ffffff" data-original="#ffffff" style=""/></g><g><path d="m437.458 385.379h30v91.36h-30z" fill="#eaf4f4" data-original="#eaf4f4" style="" class=""/></g><g><path d="m437.458 294.631h30v40.925h-30z" fill="#eaf4f4" data-original="#eaf4f4" style="" class=""/></g><g><path d="m44.543 253.6h30v77.238h-30z" fill="#ffffff" data-original="#ffffff" style=""/></g><g><path d="m437.458 167.715h30v77.238h-30z" fill="#eaf4f4" data-original="#eaf4f4" style="" class=""/></g><g><path d="m181.59 390.509v121.491h148.82v-121.491z" fill="#eaf4f4" data-original="#eaf4f4" style="" class=""/></g><path d="m256 390.509h74.41v121.491h-74.41z" fill="#cae8ea" data-original="#cae8ea" style=""/></g><g fill="#eaf4f4"><path d="m256 113.455h15v61.1h-15z" fill="#eaf4f4" data-original="#eaf4f4" style="" class=""/><path d="m256 224.285h15v40.92h-15z" fill="#eaf4f4" data-original="#eaf4f4" style="" class=""/><path d="m256 314.885h15v40.93h-15z" fill="#eaf4f4" data-original="#eaf4f4" style="" class=""/></g></g></g></svg>
