<svg id="Capa_1" enable-background="new 0 0 512 512" height="512" viewBox="0 0 512 512" width="512" xmlns="http://www.w3.org/2000/svg" xmlns:xlink="http://www.w3.org/1999/xlink"><linearGradient id="SVGID_1_" gradientUnits="userSpaceOnUse" x1="256" x2="256" y1="421" y2="91"><stop offset="0" stop-color="#5558ff"/><stop offset="1" stop-color="#00c0ff"/></linearGradient><g><path d="m76 421h330c57.891 0 106-47.109 106-105 0-41.367-25.551-78.56-63.021-95.391-10.093-73.418-73.331-129.609-147.979-129.609-59.531 0-113.159 35.728-136.904 90.015-52.412.938-95.566 40.474-102.217 91.318-34.629 6.621-61.879 37.134-61.879 73.667 0 41.353 34.647 75 76 75zm0-120c8.291 0 15-6.709 15-15 0-41.353 33.647-75 75-75 1.04 0 2.036.176 3.032.322.234.029 3.442.41 3.677.425 6.753.791 13.213-3.516 15.469-10.005 16.816-48.296 62.168-80.742 112.822-80.742 62.197 0 114.492 48.882 119.063 111.299.439 5.991 4.409 11.147 10.093 13.096 30.409 10.415 51.844 38.803 51.844 70.605 0 41.353-34.647 75-76 75h-330c-24.814 0-46-20.186-46-45s21.186-45 46-45z" fill="url(#SVGID_1_)"/></g></svg>