<svg id="Layer_1" data-name="Layer 1" xmlns="http://www.w3.org/2000/svg" viewBox="0 0 435.83 217.53"><defs><style>.cls-1,.cls-11,.cls-13{fill:#3469a0;}.cls-15,.cls-2{fill:#fff;}.cls-3{fill:#f4f4f6;}.cls-4{fill:#1a2a4c;}.cls-5{fill:#529bd4;}.cls-6{fill:#5885b8;}.cls-7{fill:#4178ad;}.cls-8{fill:#68b7e6;}.cls-9{fill:#93d4f5;}.cls-10{fill:#3e58a7;}.cls-11{font-size:42.42px;}.cls-11,.cls-13,.cls-15{font-family:BreeSerif-Regular, Bree Serif;}.cls-12{letter-spacing:-0.01em;}.cls-13{font-size:34.88px;}.cls-14{letter-spacing:-0.01em;}.cls-15{font-size:16.13px;letter-spacing:-0.02em;}.cls-16{letter-spacing:0em;}</style></defs><rect class="cls-1" x="62.26" y="77.84" width="108.18" height="74.32" rx="2.88"/><rect class="cls-2" x="65.71" y="83.27" width="101.28" height="62.67"/><circle class="cls-3" cx="116.35" cy="80.63" r="1.05"/><path class="cls-4" d="M54.06,152.17H178.64a0,0,0,0,1,0,0V155a3.14,3.14,0,0,1-3.14,3.14H58.6a4.54,4.54,0,0,1-4.54-4.54v-1.4A0,0,0,0,1,54.06,152.17Z"/><path class="cls-3" d="M107.19,152.17h18.32a0,0,0,0,1,0,0v1.1a.91.91,0,0,1-.91.91H108.1a.91.91,0,0,1-.91-.91v-1.1A0,0,0,0,1,107.19,152.17Z"/><rect class="cls-5" x="62.26" y="77.56" width="14.03" height="13.71" transform="translate(138.55 168.84) rotate(-180)"/><rect class="cls-6" x="62.26" y="91.28" width="14.03" height="13.71" transform="translate(138.55 196.27) rotate(-180)"/><rect class="cls-1" x="62.26" y="104.99" width="14.03" height="13.71" transform="translate(138.55 223.7) rotate(-180)"/><rect class="cls-7" x="62.26" y="118.71" width="14.03" height="13.71" transform="translate(138.55 251.13) rotate(-180)"/><rect class="cls-4" x="62.26" y="132.42" width="14.03" height="13.71" transform="translate(138.55 278.55) rotate(-180)"/><rect class="cls-8" x="76.29" y="77.56" width="14.03" height="13.71" transform="translate(166.61 168.84) rotate(-180)"/><rect class="cls-8" x="76.29" y="91.28" width="14.03" height="13.71" transform="translate(166.61 196.27) rotate(-180)"/><rect class="cls-6" x="76.29" y="104.99" width="14.03" height="13.71" transform="translate(166.61 223.7) rotate(-180)"/><rect class="cls-7" x="76.29" y="118.71" width="14.03" height="13.71" transform="translate(166.61 251.13) rotate(-180)"/><rect class="cls-6" x="76.29" y="132.42" width="14.03" height="13.71" transform="translate(166.61 278.55) rotate(-180)"/><rect class="cls-5" x="90.32" y="77.56" width="14.03" height="13.71" transform="translate(194.67 168.84) rotate(-180)"/><rect class="cls-6" x="90.32" y="104.99" width="14.03" height="13.71" transform="translate(194.67 223.7) rotate(-180)"/><rect class="cls-8" x="90.32" y="118.71" width="14.03" height="13.71" transform="translate(194.67 251.13) rotate(-180)"/><rect class="cls-8" x="90.32" y="132.42" width="14.03" height="13.71" transform="translate(194.67 278.55) rotate(-180)"/><rect class="cls-8" x="104.47" y="77.56" width="14.03" height="13.71" transform="translate(222.97 168.84) rotate(-180)"/><rect class="cls-9" x="104.47" y="91.28" width="14.03" height="13.71" transform="translate(222.97 196.27) rotate(-180)"/><rect class="cls-9" x="104.47" y="118.71" width="14.03" height="13.71" transform="translate(222.97 251.13) rotate(-180)"/><rect class="cls-5" x="104.47" y="132.42" width="14.03" height="13.71" transform="translate(222.97 278.55) rotate(-180)"/><rect class="cls-8" x="118.5" y="91.28" width="14.03" height="13.71" transform="translate(251.02 196.27) rotate(-180)"/><rect class="cls-9" x="118.5" y="104.99" width="14.03" height="13.71" transform="translate(251.02 223.7) rotate(-180)"/><rect class="cls-9" x="118.5" y="132.42" width="14.03" height="13.71" transform="translate(251.02 278.55) rotate(-180)"/><rect class="cls-8" x="132.53" y="77.56" width="14.03" height="13.71" transform="translate(279.08 168.84) rotate(-180)"/><rect class="cls-9" x="132.53" y="91.28" width="14.03" height="13.71" transform="translate(279.08 196.27) rotate(-180)"/><rect class="cls-4" x="20.18" y="104.99" width="14.03" height="13.71" transform="translate(54.38 223.7) rotate(-180)"/><rect class="cls-1" x="34.21" y="77.56" width="14.03" height="13.71" transform="translate(82.44 168.84) rotate(-180)"/><rect class="cls-4" x="34.21" y="91.28" width="14.03" height="13.71" transform="translate(82.44 196.27) rotate(-180)"/><rect class="cls-7" x="48.23" y="63.85" width="14.03" height="13.71" transform="translate(110.5 141.41) rotate(-180)"/><rect class="cls-1" x="48.23" y="91.28" width="14.03" height="13.71" transform="translate(110.5 196.27) rotate(-180)"/><rect class="cls-7" x="48.23" y="104.99" width="14.03" height="13.71" transform="translate(110.5 223.7) rotate(-180)"/><path class="cls-10" d="M152.11,137.22a1.07,1.07,0,0,1-.51-.52l-2.8-4.83-.1-.17-.48.39c-.93.75-1.85,1.51-2.77,2.27a.6.6,0,0,1-.63.15.7.7,0,0,1-.43-.62V119.31a.78.78,0,0,1,.29-.69.57.57,0,0,1,.73,0l1.91,1.35,9.58,6.82a.81.81,0,0,1,.36.41.7.7,0,0,1-.46.92l-2.57.8-1,.33-.12,0q.34.61.69,1.2c.69,1.19,1.38,2.38,2.06,3.58a.73.73,0,0,1-.24,1.11l-2.92,1.86-.24.14Zm-6.47-16.75v12l.15-.12,2.58-2.12c.44-.36.79-.29,1.08.21l2.88,5,.1.18,2-1.27-.15-.25q-1.35-2.37-2.72-4.72a.72.72,0,0,1,.39-1.14l2-.61,1.21-.37Z"/><rect class="cls-1" x="393.47" y="83.65" width="22.19" height="14.23"/><text class="cls-11" transform="translate(183.81 113.27)">So<tspan class="cls-12" x="44.54" y="0">l</tspan><tspan x="56.76" y="0">uciones</tspan></text><text class="cls-13" transform="translate(183.81 145.55)">Tec<tspan class="cls-14" x="52.6" y="0">n</tspan><tspan x="73.18" y="0">ológicas</tspan></text><text class="cls-15" transform="translate(394.65 96.05)">G<tspan class="cls-16" x="10.01" y="0">T</tspan></text></svg>